/root/.openclaw/workspace/be_pipeline_v4_bytedance.py:4: FutureWarning: 

All support for the `google.generativeai` package has ended. It will no longer be receiving 
updates or bug fixes. Please switch to the `google.genai` package as soon as possible.
See README for more details:

https://github.com/google-gemini/deprecated-generative-ai-python/blob/main/README.md

  import google.generativeai as genai
[15:46:13] 1. Generating Script & Bytedance Prompts via Gemini...
[15:46:22] 2. Generating Voiceover...
[15:46:34] 3. Generating Captions...
/root/.openclaw/workspace/venv/lib/python3.12/site-packages/whisper/transcribe.py:132: UserWarning: FP16 is not supported on CPU; using FP32 instead
  warnings.warn("FP16 is not supported on CPU; using FP32 instead")
[15:46:53] 4. Generating Videos with Kie.ai (Bytedance Seedance 2.0 Fast)...
[15:46:53] Started Bytedance task: 2e2b01c00cba2a4f832395e20b7c95af
[15:46:54] Started Bytedance task: b6b03ae78f353f09ea69c3d3734e8567
[15:46:54] Started Bytedance task: 9e63837de772e9e261a332bdd602f504
[15:46:54] Polling Bytedance tasks (this takes a few mins)...
[15:49:27] Task 2e2b01c00cba2a4f832395e20b7c95af completed!
[15:49:57] Task b6b03ae78f353f09ea69c3d3734e8567 completed!
[15:50:38] Task 9e63837de772e9e261a332bdd602f504 completed!
[15:50:38] Downloading videos...
[15:50:39] 5. Stitching Video...
ffmpeg version 6.1.1-3ubuntu5 Copyright (c) 2000-2023 the FFmpeg developers
  built with gcc 13 (Ubuntu 13.2.0-23ubuntu3)
  configuration: --prefix=/usr --extra-version=3ubuntu5 --toolchain=hardened --libdir=/usr/lib/x86_64-linux-gnu --incdir=/usr/include/x86_64-linux-gnu --arch=amd64 --enable-gpl --disable-stripping --disable-omx --enable-gnutls --enable-libaom --enable-libass --enable-libbs2b --enable-libcaca --enable-libcdio --enable-libcodec2 --enable-libdav1d --enable-libflite --enable-libfontconfig --enable-libfreetype --enable-libfribidi --enable-libglslang --enable-libgme --enable-libgsm --enable-libharfbuzz --enable-libmp3lame --enable-libmysofa --enable-libopenjpeg --enable-libopenmpt --enable-libopus --enable-librubberband --enable-libshine --enable-libsnappy --enable-libsoxr --enable-libspeex --enable-libtheora --enable-libtwolame --enable-libvidstab --enable-libvorbis --enable-libvpx --enable-libwebp --enable-libx265 --enable-libxml2 --enable-libxvid --enable-libzimg --enable-openal --enable-opencl --enable-opengl --disable-sndio --enable-libvpl --disable-libmfx --enable-libdc1394 --enable-libdrm --enable-libiec61883 --enable-chromaprint --enable-frei0r --enable-ladspa --enable-libbluray --enable-libjack --enable-libpulse --enable-librabbitmq --enable-librist --enable-libsrt --enable-libssh --enable-libsvtav1 --enable-libx264 --enable-libzmq --enable-libzvbi --enable-lv2 --enable-sdl2 --enable-libplacebo --enable-librav1e --enable-pocketsphinx --enable-librsvg --enable-libjxl --enable-shared
  libavutil      58. 29.100 / 58. 29.100
  libavcodec     60. 31.102 / 60. 31.102
  libavformat    60. 16.100 / 60. 16.100
  libavdevice    60.  3.100 / 60.  3.100
  libavfilter     9. 12.100 /  9. 12.100
  libswscale      7.  5.100 /  7.  5.100
  libswresample   4. 12.100 /  4. 12.100
  libpostproc    57.  3.100 / 57.  3.100
[mov,mp4,m4a,3gp,3g2,mj2 @ 0x6063a0685940] Auto-inserting h264_mp4toannexb bitstream filter
Input #0, concat, from '/root/.openclaw/workspace/content/broke_economist/v4_test/concat.txt':
  Duration: N/A, start: 0.000000, bitrate: 3704 kb/s
  Stream #0:0(und): Video: h264 (High) (avc1 / 0x31637661), yuv420p(progressive), 720x1280, 3704 kb/s, 24 fps, 24 tbr, 12288 tbn
    Metadata:
      handler_name    : VideoHandler
      vendor_id       : [0][0][0][0]
Output #0, mp4, to '/root/.openclaw/workspace/content/broke_economist/v4_test/concat.mp4':
  Metadata:
    encoder         : Lavf60.16.100
  Stream #0:0(und): Video: h264 (High) (avc1 / 0x31637661), yuv420p(progressive), 720x1280, q=2-31, 3704 kb/s, 24 fps, 24 tbr, 12288 tbn
    Metadata:
      handler_name    : VideoHandler
      vendor_id       : [0][0][0][0]
Stream mapping:
  Stream #0:0 -> #0:0 (copy)
Press [q] to stop, [?] for help
size=       0kB time=-00:00:00.08 bitrate=  -0.0kbits/s speed=N/A    [mov,mp4,m4a,3gp,3g2,mj2 @ 0x6063a0685940] Auto-inserting h264_mp4toannexb bitstream filter
    Last message repeated 13 times
[out#0/mp4 @ 0x6063a0729180] video:37970kB audio:0kB subtitle:0kB other streams:0kB global headers:0kB muxing overhead: 0.057441%
size=   37992kB time=00:01:15.50 bitrate=4122.2kbits/s speed= 361x    
[15:51:13] ✅ V4 Pipeline Render Complete! Saved to /root/.openclaw/workspace/content/broke_economist/v4_test/final.mp4
